<?xml version="1.0" encoding="utf-8"?><!-- Uploaded to: SVG Repo, www.svgrepo.com, Generator: SVG Repo Mixer Tools -->
<svg width="800px" height="800px" viewBox="0 0 128 128" xmlns="http://www.w3.org/2000/svg" xmlns:xlink="http://www.w3.org/1999/xlink" aria-hidden="true" role="img" class="iconify iconify--noto" preserveAspectRatio="xMidYMid meet"><path d="M94.82 52.36s4.39-4.31 9.48-4.13c5.44.19 9.43 3.14 10.75 7.65c1.31 4.5 1.45 6.24 2.44 7.7c.99 1.45 2.25 2.49 2.25 3.28s-.94 1.83-2.21 2.35s-3.47-.09-3.47-.09s-.56 2.82-2.63 3.47c-2.06.66-3.94.42-3.94.42l-2.63-10.18s1.84-2.79.38-4.74c-1.97-2.62-5.46-.18-5.46-.18l-4.96-5.55z" fill="#957155"></path><path d="M68.43 93.82s-.75 5.02-1.69 6.66c-.94 1.64-1.36 1.97-1.36 1.97s-.05 8.26-.05 10.56c0 1.79.46 4.41-.56 5.21c-1.27.99-6.29 1.03-6.99 0s1.88-3.33 1.97-4.04c.09-.7-.28-7.7-.33-9.06c-.05-1.36-2.36-10.3-2.36-10.3l11.37-1z" fill="#957155"></path><path d="M98.8 100.53c.38.59.88 7.23.97 9.29c.09 2.06.09 5.4-.05 5.91c-.14.52-3.24 3.05-2.11 3.99c1.13.94 7.09.38 7.56-.47c.47-.84.42-18.11.42-19.52c0-1.08-1.84-5.5-2.51-6.5c-.65-.98-4.65 6.71-4.28 7.3z" fill="#957155"></path><path d="M20.63 16.9s-1.19-1.94-2.5-3.7c-1.51-2.02-3.17-3.8-3.1-4.47c.08-.76 1.3-.49 1.3-.49l4.5 3.45l3.66 5.07l-3.86.14z" fill="#db7c60"></path><path d="M24.61 5.39c-.25 1.06 1.96 3.61 3.63 7.71c.68 1.67 1.27 6.12 1.27 6.12l2.67 1.27s-1.06-6.05-2.11-8.8s-4.79-9.18-5.46-6.3z" fill="#db7c60"></path><path d="M24.22 15.07S21.4 10 19.15 8.81c-2.25-1.2-3.94-.74-3.77-.32c.31.74 3.1 1.9 4.43 3.94s3.55 5.53 3.55 5.53l.86-2.89z" fill="#ffd3b2"></path><path d="M24.86 4.94c-.09-1.41 4.01.28 6.34 3.45s2.89 5.21 3.03 8.8s-2.6 3.45-2.6 3.24s-.2-4.43-2.04-9.22C28.34 8 24.93 6.06 24.86 4.94z" fill="#ffd3b2"></path><path d="M19.79 19.6s-2.58 1.55-5.07 2.49c-2.03.76-6.44 2.28-6.09 4.25c.14.79-.88 1.75-.39 3.2c.43 1.28 1.25 1.38 1.55 1.55c.49.28 1.51 2.25 3.8 2.45c2.57.22 4.08-.75 4.08-.75L23.73 38l8.59-8.12l.61-8.96l-6.19-2.35l-6.95 1.03z" fill="#ffd3b2"></path><path d="M11.69 28.59s2.04-1.23 2.89-1.65c.84-.42.77-2.15-.84-1.51c-1.62.63-2.78 1.37-2.78 1.37s-1.3-1.02-1.76-1.48s-1.34.52-.46 1.68c.88 1.17 1.26 1.52 1.26 1.52s0 .77-.04 1.06s-1.9-1.23-1.87-.25c.04.99.25 1.48 1.34 1.62c1.09.14 1.55.21 1.55.21s1.76.7 3.34.67s3.8-1.87 3.13-2.53c-.67-.67-2.29.7-3.73.67c-1.44-.04-1.9-.25-1.9-.25l-.13-1.13z" fill="#7b5b52"></path><path d="M23.17 22.85s1.16-1.2 2.43-.49c1.27.7.99 2.82-.32 3.13c-1.23.3-2.15-.56-2.15-.56s-2.57.35-2.46-.99c.09-1.16 2.5-1.09 2.5-1.09z" fill="#2b2a32"></path><path d="M28.52 13.95s-4.65-.31-7.6 1.67s-3.94 3.28-3.43 4.18s1.88.89 3.61.75c1.74-.14 3.66-.38 5.49-.23c1.83.14 2.91.56 3.57.94c.66.38 1.64 1.22 1.64 1.22s-1.92 2.62-3.43 4.97c-1.5 2.35-2.39 3.89-3.19 5.73c-.58 1.34-1.36 3.24-1.36 3.24s-2.3-2.16-2.86-2.53c-.56-.38-2.58-1.5-2.58-1.5l-.99.61s-.14 3.99 1.45 8.45s3.99 8.31 3.99 8.31s-.47 7.09 3.33 13.7c2 3.49 6.38 5.87 6.38 5.87s-.28 4.74 2.49 7.84c2.77 3.1 5.12 3.1 5.12 3.1s.28 2.11 1.88 5.49c1.64 3.47 3.71 4.5 3.71 4.5s-.56 3 .38 7.98c.85 4.49 3.38 6.8 3.38 6.8s.33 12.06 0 12.81s-3.1 3.71-2.53 4.69c.56.99 3.1 1.08 4.36 1.08s3.33-.42 3.89-.94s.7-8.59.7-10.09s.33-6.99.33-6.99s3.47-1.55 4.69-4.18c1.22-2.63 1.08-4.74 1.08-4.74s4.18.52 9.29-.89c5.12-1.41 10.28-6.05 10.28-6.05s2.86 5.12 4.22 7.51s3.89 5.77 3.89 5.77s.05 13.66-.23 14.22c-.28.56-3.66 4.5-2.96 5.26c.7.75 2.44.84 4.36.8c1.92-.05 3.89-.14 4.27-1.27c.38-1.13 0-3.61.09-5.49c.09-1.88.42-12.06.42-12.06s5.48-3.06 7.98-9.43c2.07-5.28 2.02-10.79 2.02-10.79s1.55-5.07 1.83-6.95s.84-5.58-1.36-11.87s-7.18-13.56-14.59-16.61c-7.41-3.05-14.88-3.24-21.3-3.19c-6.43.05-17.69 1.5-19.52.94c-1.83-.56-5.4-5.77-6.76-11.22c-1.36-5.44-3-11.36-5.3-14.12s-4.41-3.66-4.41-3.66s-1.13 3.43-3.24 1.97c-1.68-1.16-1.78-2.55-1.92-3.48c-.14-.99-.56-2.12-.56-2.12z" fill="#ae957f"></path><path d="M93.3 101.32c.91.28 3.71-1.45 4.97-2.63c1.55-1.44 2.39-3.94 2.25-4.79c-.14-.84-2.21 1.69-2.82.8c-.61-.89 2.26-2.98 3.28-4.65c1.4-2.28 1.79-4.19 1.18-4.56s-2.86 2.68-3.53 1.65c-.83-1.27.67-2.47 2.23-3.84c1.44-1.27 3.03-2.36 3.78-6.02s.49-9.03-.82-12.04c-1.31-3-5.33-9.31-12.83-13.68c-7.51-4.36-18.96-3.85-23.56-3.71c-4.6.14-15.96 2.16-17.83 1.22c-1.88-.94-5.26-3-7.41-10.09c-2.16-7.09-2.06-10.77-4.32-14.5c-1.13-1.87-2.93-3.07-2.93-3.07s-2.51 4.53-4.15 7.06s-4.46 7.27-5.4 14.08c-.94 6.8.39 12.75.96 15.23c1.18 5.16 5.8 8.19 5.8 8.19s.84-3.34 1.08-4.36c.35-1.5 1.13-3.38 2.16-2.72c1.03.66-1 8.93-.26 12.93c.94 5.09 5.04 5.23 5.04 5.23s.38-2.58 1.31-3.75c.94-1.17 1.41-1.22 1.78-.75c.38.47-.82 4.28-.19 8.12c.92 5.56 4.61 8.47 4.89 9.08s-1.09 13.48 6.04 13.59c6.15.09 4.88-6.66 4.88-6.66s2.49-.89 3-4.46s-.52-7.67-1.03-9.01c-1.03-2.67.66-3.05 1.45-1.17c.8 1.88 1.38 3.5 1.74 5.63c.36 2.18-.14 4.83.42 5.11c.92.46 4.97.47 8.63-1.36s6.85-5.82 6.85-5.82s-2.35-5.91-1.92-11.73s2.25-9.24 3.1-8.54c.84.7-.38 5.35.52 10.89c.89 5.54 2.16 10.75 5.73 16.66c3.58 5.91 4.85 8.12 5.93 8.44z" fill="#f8f9fc"></path></svg>